<?xml version="1.0" encoding="utf-8"?>
<!-- Generator: Adobe Illustrator 21.0.2, SVG Export Plug-In . SVG Version: 6.00 Build 0)  -->
<svg version="1.1" id="Ebene_1" xmlns="http://www.w3.org/2000/svg" xmlns:xlink="http://www.w3.org/1999/xlink" x="0px" y="0px"
	 viewBox="0 0 1920 1073.9" style="enable-background:new 0 0 1920 1073.9;" xml:space="preserve">
<style type="text/css">
	.st0{opacity:0.2;fill:none;stroke:#FFFFFF;stroke-width:2;enable-background:new    ;}
	.st1{opacity:0.4;fill:url(#Rounded_Rectangle_3_2_);fill-opacity:0.22;enable-background:new    ;}
</style>
<g>
	<path id="Rounded_Rectangle_3" class="st0" d="M-17.6,579.7l294.1-124.9L503,496.2l227.6-123.4l231.3,50l226.1-174.3l225.8,41.7
		L1640.8,54l296.9-54v1083.6c0,45.4-37.6,82.2-84,82.2H66.3c-46.4,0-84-36.8-84-82.2L-17.6,579.7L-17.6,579.7z"/>
	<linearGradient id="Rounded_Rectangle_3_2_" gradientUnits="userSpaceOnUse" x1="960" y1="123.5942" x2="960" y2="1023.0303">
		<stop  offset="0" style="stop-color:#FFFFFF"/>
		<stop  offset="1" style="stop-color:#FFFFFF;stop-opacity:0"/>
	</linearGradient>
	<path id="Rounded_Rectangle_3_1_" class="st1" d="M-17.6,579.7l294.1-124.9L503,496.2l227.6-123.4l231.3,50l226.1-174.3l225.8,41.7
		L1640.8,54l296.9-54v1083.6c0,45.4-37.6,82.2-84,82.2H66.3c-46.4,0-84-36.8-84-82.2L-17.6,579.7L-17.6,579.7z"/>
</g>
</svg>
